# xmcd
#
# Track frame offsets:
#  150
#  15115
#  32575
#  47120
#  59920
#  71170
#  82857
#  97775
#  111295
#  124410
#
# Disc length: 1865 seconds
#
# Revision: 0
# Processed by: cddbd v1.4PL0 Copyright (c) Steve Scherf et al.
# Submitted via: AltoMP3_Maker 3.0
#
DISCID=7e07470a
DTITLE=James Foley - More hot country hits vol 2
DYEAR=1900
DGENRE=
TTITLE0=Turn  it on turn it up turn me loose
TTITLE1=All you ever do is bring me down
TTITLE2=Just call me lonesome
TTITLE3=Be my baby tonight
TTITLE4=You ain't much fun
TTITLE5=Not counting you
TTITLE6=Wild man
TTITLE7=Little Miss Honkytonk
TTITLE8=Burn me down
TTITLE9=American honky tonk bar association
EXTD=
EXTT0=
EXTT1=
EXTT2=
EXTT3=
EXTT4=
EXTT5=
EXTT6=
EXTT7=
EXTT8=
EXTT9=
PLAYORDER=
